<svg xmlns="http://www.w3.org/2000/svg"><symbol id="brachiosaurus" viewBox="0 0 256 256"><path d="M63.1 164.7a28.4 28.4 0 0 0-7.2.9.1.1 0 0 0-.1.1c0 .3.3.5.8.9l1.9 1 2.4.9 2.7.8 2.2.6 1.4.2h2l2.4-.4 2.3-.8a5.1 5.1 0 0 0 1.5-1.4 25.1 25.1 0 0 0-6-2.1 32 32 0 0 0-6.3-.7z"/><path d="M128 8.4A119.6 119.6 0 1 0 247.6 128 119.5 119.5 0 0 0 128 8.4zm78 66v.3a7.8 7.8 0 0 1-.1 1.3 16.2 16.2 0 0 1-.3 2l-.3 1.9c-.1.6-.2 1.1-.2 1.3a9.1 9.1 0 0 0-.9 1.7l-.6 1.9c-.2.6-.3 1.2-.5 1.9a13.4 13.4 0 0 1-.7 1.8 26.9 26.9 0 0 1-1.6 2.9 12.5 12.5 0 0 0-1.5 2.8l-18.8 26.1c-.1.3-.1.4-.2.5l-.2.3-.3.3c-.1.1-.3.2-.4.4l-1.6 2.2a31.5 31.5 0 0 0-1.9 2.7c-.7.9-1.4 2-2.1 3a34.9 34.9 0 0 0-1.8 3.1 24.3 24.3 0 0 0-1.4 2.8 6.8 6.8 0 0 0-.5 2.2c0 .2-.2.5-.1.6s.1.5.1.7c-.1 0-.2.2-.2.4a.5.5 0 0 0 .2.4v9.5a4.4 4.4 0 0 1-.2 1l-.3 1.1a3.9 3.9 0 0 0-.6 1.1c-.1.4-.4.7-.4 1.1v1.5c0 .1.1.2-.1.4l-.3.8-.7.7a1.1 1.1 0 0 1-.5.4v.4c0 .1.7.2.8.4s.8.3.8.4v2.6a17.5 17.5 0 0 1-.6 3.3c-.2 1.2-.5 2.2-.7 3.3s-.5 2.2-.7 3.3-.3 2.2-.3 3.4.1 3.9.3 5.9a37 37 0 0 0 1 5.8 35 35 0 0 0 2 5.4 22.2 22.2 0 0 0 3.3 4.9l-1.2.8-1.6.6-1.6.5h-1.8l-1-.2-1.1-.2-.9-.2-.7-.2-.7-.2c-.3-.2-.5-.3-.6-.5a.9.9 0 0 1-.3-.7c.1-1.2.1-2.5.1-3.8l-.3-4c-.1-1.3-.3-2.7-.5-4s-.3-2.6-.5-3.9l-.2-.6a.6.6 0 0 0-.2-.5c.1-1.1.1-2.2.1-3.5s0-2.5-.1-3.7a23.2 23.2 0 0 0-.6-3.8 10.2 10.2 0 0 0-1.3-3.2 3.5 3.5 0 0 0-1.4 1.7c-.2.8-.5 1.6-.7 2.6s-.2 1.8-.4 2.7-.9 1.6-.9 2.2v7.1c0 2.7-.2 5.3-.1 7.8a68.3 68.3 0 0 0 .6 7.7c0 .1.1.2.4.3l.7.6.8.6c.2.3.3.4.3.6s-.3.5-.8.8l-1.7.8-1.9.8c-.6.1-1 .4-1.2.4h-.2l-4.5-2.5a.4.4 0 0 1-.2-.4v-.6a26.1 26.1 0 0 1 0-2.8 12.7 12.7 0 0 0 .2-2.8c0-1.3-.2-2.5-.3-3.6l-.6-3.5c-.2-1.2-.4-2.4-.5-3.5a22.2 22.2 0 0 1-.3-3.7 29.1 29.1 0 0 1 .1-3.1 25.1 25.1 0 0 1 .4-2.7c.1-.8.3-1.7.4-2.6s.4-1.9.7-3a2 2 0 0 0-.1-.7c0-.3-.1-.5-.1-.7l-1.7.2-1.8.5-1.8.6-1.8.5-1.3.2h-1.9l-1-.2h-6.7a39.7 39.7 0 0 0-4.9-.1h-2.3a4.5 4.5 0 0 0-2.2.8v4.9c0 1.6-.1 3.2-.2 4.8s-.2 3.2-.2 4.8-.2 3.3-.2 4.9v2.3a7.5 7.5 0 0 1 0 1.5v.9c0 .5.7 1.1 1.1 1.6l1.3 1.6a16.3 16.3 0 0 1 1.1 1.7 2.5 2.5 0 0 1 .5 1.6v.4a9.7 9.7 0 0 1-3.8.4c.1.4 0 .7-.2.7H116a7.5 7.5 0 0 1-2.1-.2 3.4 3.4 0 0 1-1.7-.8 2.1 2.1 0 0 1-.7-1.7 6.2 6.2 0 0 1 .1-1.3l.3-1.2.3-1.2a5.7 5.7 0 0 0 .1-1.3c0-1.3-.1-2.5-.2-3.6a34 34 0 0 0-.7-3.4c-.2-1.1-.5-2.5-.8-3.6a28.6 28.6 0 0 1-.6-3.7h-.4c-.2 0-.4.7-.5.8l-.4.7-.3.5c-.5.7-.9 1.4-1.5 2.1l-1.3 2.1a14.6 14.6 0 0 0-1 2.3 7.5 7.5 0 0 0-.4 2.6 4 4 0 0 0 .3 1.5 6.1 6.1 0 0 0 .7 1.4l.6 1.1c.3.3.4.5.4.6a.8.8 0 0 1-.4.6l-1 .5-1.2.2h-4.1a1.5 1.5 0 0 1-1-.4 1.9 1.9 0 0 1-.7-.8 13.1 13.1 0 0 1-.5-1.5c-.2-.5-.3-1-.5-1.5a7.8 7.8 0 0 1-.2-1.6 3.9 3.9 0 0 1 .3-1.4l.9-1.5a13 13 0 0 0 1-1.5 6.6 6.6 0 0 0 .8-1.3c.8-1.9 1.6-3.7 2.3-5.6s1.5-3.7 2.3-5.5l.5-.7a1.8 1.8 0 0 1 .5-.7l.4-.7a2.2 2.2 0 0 0 .1-.8.6.6 0 0 0-.3-.6h-1.2l-8.4 2.3a3.2 3.2 0 0 1-1.3.5l-1.6.4a5.3 5.3 0 0 0-1.5.5 1.2 1.2 0 0 0-.7 1 1.4 1.4 0 0 0 .3.9l.6.6.8.5c.2.2.5.3.7.6l-.4.4-1.2-.8-1.3-.8-1.4-.6-1.5-.2a14.8 14.8 0 0 0-3.5.5l-3.8 1.2-3.8 1a13.3 13.3 0 0 1-4 .5 15.2 15.2 0 0 1-3.2-.4 30.6 30.6 0 0 1-4.7-1c-1.6-.5-3.3-1-5.1-1.7a33.5 33.5 0 0 1-4.7-2.1 15.8 15.8 0 0 1-3.4-2.5 4 4 0 0 1-1.4-2.8 4.3 4.3 0 0 1 1.1-3.1 5.6 5.6 0 0 1 2.6-1.5 17.2 17.2 0 0 1 3.3-.2c1.1 0 2.2.4 3.1.4h3.8a1.9 1.9 0 0 1 1.2-.3c.6.1 1.3 0 2.2.2l2.4.3 1.8.2 1.8.5 1.7.8 1.7.7a6.3 6.3 0 0 0 1.9.3 8 8 0 0 0 3.8-1 20.6 20.6 0 0 0 3.9-2.4c1.2-.9 2.5-1.9 3.6-2.9l3.1-2.6 1.8-1.1 1.7-1.1a6.1 6.1 0 0 0 1.6-1.2 5.6 5.6 0 0 0 1.4-1.6 29.1 29.1 0 0 0 2.5-4.2 46.4 46.4 0 0 1 2.5-4.2 7.4 7.4 0 0 1 1.3-1.2 6.7 6.7 0 0 1 1.4-.9l1.5-.9 1.6-.8 3.4-2.5 3.2-2.8 3.2-2.8 3.2-2.7a15.8 15.8 0 0 1 3.6-2l3.7-1.8 2.3-1.2 2.3-1.2 2.5-1.1a10.3 10.3 0 0 1 2.5-.7l21.1-3.1a9.2 9.2 0 0 0 3.2-1 22 22 0 0 0 3.2-2.1 36.5 36.5 0 0 0 3-2.7 41.2 41.2 0 0 0 2.8-3.1l2.5-3a32.8 32.8 0 0 1 2.2-2.6l7.2-8.5q.2 0 .3-.3a1.2 1.2 0 0 0 .5-.5 1.2 1.2 0 0 0 .5-.5l.3-.2 1.9-3.1h.2l.4-.3.3-.2.2-.2a.5.5 0 0 0 .4-.3l.4-.4 1.2-1.6 1.2-1.9 1.3-1.8a14.6 14.6 0 0 0 .9-1.6 16.7 16.7 0 0 0 .8-2 14.6 14.6 0 0 1 .7-1.9 17.2 17.2 0 0 1 .7-2.1c.2-.7.9-1.4.9-2.1v-5.8a4.6 4.6 0 0 0-1-2.9 9.9 9.9 0 0 0-2.5-2.5 12.3 12.3 0 0 0-3.2-1.7 8.9 8.9 0 0 0-3-.6 23.5 23.5 0 0 0-5.4.6 10.9 10.9 0 0 0-4.9 2.5l-1.3 1.3-1.5 1.8-1.7 1.9-1.7 1.7-1.7 1.2a3 3 0 0 1-1.7.5 1.5 1.5 0 0 1-1.1-.4 1.6 1.6 0 0 1-.5-1.1v-.4c0-.1.1-.2.1-.4s.1-.5.2-.8.1-.5.1-.7a1 1 0 0 0 .1-.4 3.8 3.8 0 0 0-.3-1.6 5 5 0 0 0-.5-1.3l-.6-1.1a5 5 0 0 1-.2-1.2 1.5 1.5 0 0 0 .8-.2l.4-.6a4.3 4.3 0 0 1 .4-.7 1.7 1.7 0 0 1 .8-.6h2.6a1 1 0 0 0 .9-.4l.7-.6h.3l.3.4a.5.5 0 0 0 .2.4c0-.2.1-.3.3-.4l.6-.3 1.1-.6 1.2-.8 1.3-.7 1-.6.6-.4 2-1.2a5.2 5.2 0 0 1 1.6-.6l1.8-.2h6.1a3.4 3.4 0 0 0 1.4.5 3.5 3.5 0 0 0 1.4.3l1.5.3 1.4.5a14.5 14.5 0 0 1 4.3 2.8 12.7 12.7 0 0 1 3 4 19.6 19.6 0 0 1 1.7 4.8 21.5 21.5 0 0 1 .4 5.1v2.2z"/></symbol><symbol id="micropachycephalosaurus" viewBox="0 0 256 256"><path d="M132.3 149.8c-.3 0-.4.2-.4.5h-.1a.5.5 0 0 0-.5.5c0 .4.2.6.5.6s.4-.2.4-.6h.1c.3 0 .5-.1.5-.5a.5.5 0 0 0-.5-.5zm1.3-.8a3 3 0 0 0-.8.8h.3a2.3 2.3 0 0 0 1.1-.3 3 3 0 0 0 .8-.8h-.3a2.3 2.3 0 0 0-1.1.3zm2.9-2.4c-.3 0-.4.2-.4.5h-.1c-.3 0-.4.2-.4.6h-.1c-.3 0-.5.1-.5.5s.2.5.5.5.4-.1.4-.5h.1c.3 0 .4-.2.4-.5h.1c.3 0 .5-.2.5-.6a.5.5 0 0 0-.5-.5zm21.9-5.6c-.4.6-.9 1-1.2 1.4a2 2 0 0 0 .7 1h1.1a2 2 0 0 0 1.3-.4 4 4 0 0 0 1-1.2 5.4 5.4 0 0 0 .7-1.3c.2-.5.4-1.2.5-1.2h-3.2c-.2.1-.5 1.2-.9 1.7z"/><path d="M128 8.4A119.6 119.6 0 1 0 247.6 128 119.5 119.5 0 0 0 128 8.4zm89.7 70.9l-1.5.4h-3.4a33.2 33.2 0 0 0-4.9 1.1 14.2 14.2 0 0 0-3.5 1.5 9.3 9.3 0 0 0-2.3 2.1 13.9 13.9 0 0 0-1.7 2.7c-.5 1.1-.9 2.3-1.4 3.7s-1 3-1.5 4.8l-1.2 3.4c-.3 1-.7 2-1.1 3l-1.4 2.9a32.7 32.7 0 0 1-1.7 3.1 24.9 24.9 0 0 1-2.5 3.8l-2.7 3.5-3 3.3c-1 1.1-1.9 2.3-2.9 3.6a10 10 0 0 0-1.3 2.5q-.4 1.3-.9 2.4a6 6 0 0 1-3.6 3.6l-1.3.5-1.9.7-1.9.6-1.3.3a2.7 2.7 0 0 1 .2 1.9 2.4 2.4 0 0 1-.8.9l-1.2.6a1.4 1.4 0 0 0-.8.9l-2.1 6.3a2.4 2.4 0 0 1-1 1.4 3.8 3.8 0 0 1-1.7.8 11.1 11.1 0 0 1-1.9.2 9.1 9.1 0 0 1-1.7-.1h-.8a4 4 0 0 1-1.1 0 .8.8 0 0 1-.4-.8v-.3l.3-.3a.2.2 0 0 1 .2-.2c0-.1.1-.3.1-.4v-.2a19.1 19.1 0 0 0-3.2 1.6l-3.2 1.9a32.8 32.8 0 0 1-3.1 2 33.7 33.7 0 0 1-3.2 1.9l-.8.4-1.1.6-.9.7a1.3 1.3 0 0 0-.4 1v.5l1.7 1.5 1.9 1.7 1.9 1.5 2 1.2 1.7.6 1.8.5 1.8.6a4.6 4.6 0 0 1 1.5.9l1.3 1.3 1 1.4 1.1 1.4a8.7 8.7 0 0 0 1.4 1.2 5 5 0 0 0 1.6.5l1.9.7a4.6 4.6 0 0 1 1.7.9 1.9 1.9 0 0 1 .7 1.6v.5l-5.3 1.1-1 .3a1.8 1.8 0 0 1-1.1.3h-.5l-1.1-.6-1.6-.9-1.6-1-1-.7-.2-.2-.3-.4-.3-.5-.2-.5-2.2-4.2-1-.4-1.7-.7-2.1-.9-2-.9-1.7-.8-1-.6a22.6 22.6 0 0 1-2.6-1.4 16.4 16.4 0 0 1-2.5-2.1 11.8 11.8 0 0 1-1.9-2.5 10 10 0 0 1-1-2.9l-.5.2-.6.3-.8.6-1.6 1.1-2 1.3-2 1.3-1.6 1-.9.5-5.6 3.4a17.8 17.8 0 0 0-4.3 3.2 14.3 14.3 0 0 0-3.4 4.2c-.9 1.6-.7 3.6-2.3 6.2v1.5a9.1 9.1 0 0 0 1.1 4.1 7.4 7.4 0 0 0 2 2.5 7.5 7.5 0 0 0 2.5 1.3l2.4.9a5.6 5.6 0 0 1 1.9.9 4.4 4.4 0 0 1 .7 1.9h-12.6l-.2-.4h-.3l-.5-.2-.6-.3a3.3 3.3 0 0 1-1.2-1.4 13 13 0 0 1-.4-2.1 8.6 8.6 0 0 1 .2-2.2c0-.7.2-1.3.2-1.9v-1.4a6.9 6.9 0 0 1 .3-1.6c.2-.8.3-1.6.5-2.6s.5-1.9.8-2.9.5-2.1.7-3a14.9 14.9 0 0 0 .6-2.5 9.5 9.5 0 0 0 .4-1.7 10.7 10.7 0 0 1 .7-1.9 9.5 9.5 0 0 1 .9-1.7 14.2 14.2 0 0 0 4.2-2.5 18.2 18.2 0 0 0 3.1-3.1l2.7-3.2a15.6 15.6 0 0 1 3.3-2.9l1.3-.7 2-.7 2.1-.9a10.3 10.3 0 0 0 2.1-1.1l1.5-1.2a2.7 2.7 0 0 0 .5-1.5v-1.2a1.7 1.7 0 0 0-.6-1.2l-.7-.2-1.1-.5-1.1-.6-.8-.3a10.7 10.7 0 0 1-1.9-1.1l-2.5-1.8-2.4-1.5a3.4 3.4 0 0 0-1.6-.5h-7.4c-5.6 0-11.2-.1-16.6.1s-11 .2-16.7.2c-4.1 0-8.2-.2-12.1-.4a111.1 111.1 0 0 1-11.6-1.2 90.3 90.3 0 0 1-11.4-2.8 66.5 66.5 0 0 1-11.1-5.1l-1.3-.6-1.5-1a3.4 3.4 0 0 1-1.2-1.2 2.3 2.3 0 0 1-.5-1.5 5.8 5.8 0 0 1 2 .4 20.4 20.4 0 0 1 2.2.9l2.1.9 1.4.6 4.4 1.5a37.9 37.9 0 0 0 4.8 1.4 40.5 40.5 0 0 0 4.8.9 24.2 24.2 0 0 0 4.5.4h25l2.4-.4 3.2-.5 3.4-.5 3.3-.6 2.5-.6 6.5-1.2 6.9-1.5 6.8-2a50.3 50.3 0 0 0 6.2-2.7l3.6-1.6 3.6-1.5 3.7-1.3 4-.8.9-.2h3.4l1-.2 1.8-.3 3.1-.7 3.8-.8 3.8-.9c1.2-.3 2.3-.9 3.2-1s1.4-.7 1.7-.7h6.2c2.6 0 5.1.4 7.5.6a58.7 58.7 0 0 0 7.4.5 9.8 9.8 0 0 0 4.7-1.1 21.8 21.8 0 0 0 4.2-3.3 28.4 28.4 0 0 0 3.7-4.7l3.1-5.3c.9-1.8 1.7-3.6 2.4-5.3s1.2-3.2 1.6-4.5.8-2.2 1.1-3.3l.9-2.9a19.2 19.2 0 0 1 1.2-2.5 7.4 7.4 0 0 1 1.6-1.9 8.7 8.7 0 0 1 2.5-1.5 12.1 12.1 0 0 1 3.6-.7h2.9c.7 1.5 1.6.8 2.8 1.2l3.3 1.5a11 11 0 0 1 2.8 1.7 2.6 2.6 0 0 1 1.2 2 2.1 2.1 0 0 1-.4 1.4 4.1 4.1 0 0 1-1.1.4z"/></symbol><symbol id="velociraptor" viewBox="0 0 256 256"><path d="M128 8.4A119.6 119.6 0 1 0 247.6 128 119.5 119.5 0 0 0 128 8.4zm103.5 109.1h-7c-2.8 0-5.7-.2-8.6-.4l-8.5-.9c-2.9-.4-5.7-.7-8.6-.9a81.1 81.1 0 0 0-8.6-.5 114.8 114.8 0 0 0-15.4 1 66.4 66.4 0 0 0-14.8 3.4l-28.8 10.4a2.7 2.7 0 0 0-1.1 1.5 16 16 0 0 0-.8 2.6l-.6 2.6a3.8 3.8 0 0 1-.6 1.9 3.8 3.8 0 0 0 1.3 1.2l2.3 1.1 2.8 1.1 2.6 1.4a6.6 6.6 0 0 1 1.9 1.8 3.6 3.6 0 0 1 .8 2.3 1.6 1.6 0 0 1-.5 1.1 3.1 3.1 0 0 1-1.1.8l-1.5.7a5.3 5.3 0 0 0-1.5.8 3.8 3.8 0 0 0-1.2.9 2.4 2.4 0 0 0-.4 1.5 3.6 3.6 0 0 0 .7 2.4 8.6 8.6 0 0 0 1.8 1.4 17.1 17.1 0 0 0 2.3 1.3 7.4 7.4 0 0 1 2 1.6 13.5 13.5 0 0 1 1.9 3.3 19.6 19.6 0 0 1 1.2 3.4c.3 1.2.5 2.4.7 3.6s.1 2.5.2 3.8l1.3 1.2v6.7h.8l1 .2.9.2.5.2a3.2 3.2 0 0 1 .1.8c0 .2-.1.5-.1.9a5.6 5.6 0 0 1-.4 1.2 1.8 1.8 0 0 1-.6.9c-.2.3-.4.3-.8.3h-4.9c-.1 0-.4-.5-.9-.8l-1.4-.8-1.5-.8c-.5-.2-.8-.8-1.1-.8h-5.7a4.3 4.3 0 0 1 .6-2.7 3.6 3.6 0 0 1 1.5-1.5 6.6 6.6 0 0 1 2-.6l2-.3 1.5-.6a1.5 1.5 0 0 0 .6-1.3v-.6l-.8-1.7-1.2-2.2a18.8 18.8 0 0 0-1.4-2.4 13.8 13.8 0 0 0-1.5-1.7l-1.2-.7-1.8-.9-1.6-1a2 2 0 0 1-.9-1c-.3-.8-.6-1.7-.9-2.8a21.1 21.1 0 0 0-1-3 8.9 8.9 0 0 0-1.6-2.5 4.1 4.1 0 0 0-2.8-.9 21 21 0 0 0-5.6.7 25.2 25.2 0 0 0-5.4 2.1 22.1 22.1 0 0 0-4.7 3.3 18.8 18.8 0 0 0-3.7 4.3l-.3.2h-.3c-.1 0-.1-.2-.2-.3a1.4 1.4 0 0 0-.2-.6c0-.2-.1-.4-.1-.6s-.1-.3-.2-.3-.1-.1-.2-.1a1.4 1.4 0 0 0-1 .5 4.4 4.4 0 0 0-.8 1.1l-.8 1.2-.8 1a3.5 3.5 0 0 1-.6-1.6 6.6 6.6 0 0 1-.1-1.5 8.6 8.6 0 0 1 .4-2.8c.2-.8.5-1.7.8-2.6s.6-1.5.9-2.4a22.3 22.3 0 0 0 .3-2.6H96c0-1.6.2-1.7.6-2.2a4.3 4.3 0 0 1 1.5-1.5 7.2 7.2 0 0 1 2-.9l2-.3 2.8.2 2.8.5 2.7.4 2.8.2h2.1a2.7 2.7 0 0 0-1.6-1.3l-2.4-.4-2.5-.2c-.8 0-1.5.2-2-.2l-3.7-2h-.3a10.1 10.1 0 0 0-3 0 13.8 13.8 0 0 1-2.9.1 7.7 7.7 0 0 1-2.8-.6l-2.5-1.3-2.5-1.3a4.5 4.5 0 0 0-2.7-.6v5.7h1.5a2.5 2.5 0 0 0 .9-.4l.9-.4c.3-.2.3-.4.8-.6l.6-.2v2.6l1.9-1 .2.4a2 2 0 0 0 .1.5 5.2 5.2 0 0 1-1.3 3.7 20.3 20.3 0 0 1-3 2.7 18 18 0 0 0-4.4-1.2l-4.5-.6v-7.3l-1.6.5a8.2 8.2 0 0 0-1.9.9 14.2 14.2 0 0 0-1.8 1.1c-.5.4-.9.8-.9 1.1v6.5a8.5 8.5 0 0 0 2.8-.3 5.8 5.8 0 0 0 1.7-.5l1.2-.6 1.1-.2h.4a4.1 4.1 0 0 0 .2.7l.5 1.2.3 1.2a5.1 5.1 0 0 1 .2.9 3.9 3.9 0 0 1-.4 1.8 5.9 5.9 0 0 1-1 1.7 6.4 6.4 0 0 1-1.5 1.3 3.4 3.4 0 0 1-1.7.5h-.9l-2.8-.5a19.7 19.7 0 0 1-3.5-.7 8.9 8.9 0 0 1-3-1.1 2.5 2.5 0 0 1-1.4-2v-11l.8-.8 1.8-1.5 2.3-2 2.2-2.4a27.9 27.9 0 0 0 1.7-2.5 6.3 6.3 0 0 0 .7-2.5 4 4 0 0 0-1.1-2.6 14.3 14.3 0 0 0-2.7-1.9l-3-1.3-2.4-.8-1.2-8.6c-.2-.8-.4-1.6-.6-2.6a9.5 9.5 0 0 0-1.1-2.5 8.3 8.3 0 0 0-1.6-2.1 4.1 4.1 0 0 0-2.5-.8 11.1 11.1 0 0 0-3.4.5 11.9 11.9 0 0 0-3.1 1.4l-1.5.9-2.4 1.3-2.8 1.7-2.8 1.6-2.4 1.6c-.7.4-1.2 1-1.5 1h-1l-1.6-.2-1.9-.3a3.2 3.2 0 0 1-1.3-.7c-.5-.3-.4-.8-.4-1.3v-1.8c0-.6-.2-.9.1-.9h1.5a.5.5 0 0 1 0-.4 2.5 2.5 0 0 1 .1-.8l.2-.8v-.4a2 2 0 0 0-.8-.8l-.8-.5-.7-.6a2.9 2.9 0 0 1-.2-1.2 5.2 5.2 0 0 1 .2-1.1l.7-1.1c.2-.3.2-.6.5-.8l.8-.3v.7c0 .5.4 1 .5 1.4a1.3 1.3 0 0 0 2.2.2l.9-1c.2-.4.4-1.1.6-1.6s.2.3.2-1.3H27.8l-.8-.4a5.3 5.3 0 0 0-1-.6l-.8-.8a1.3 1.3 0 0 1-.4-1 4.4 4.4 0 0 1 1-3 7.2 7.2 0 0 1 2.5-1.6 9.6 9.6 0 0 1 3-1 13.4 13.4 0 0 0 2.6-.8l2.1-.8 3.2-1.5 3.1-1.5a8.8 8.8 0 0 1 2.1-1h12.8a7.1 7.1 0 0 1 3.6.9 13.8 13.8 0 0 1 3 2.4l2.4 3.1c.7 1.1 1.4 2.2 2.1 3.1a12.9 12.9 0 0 0 2.1 2.4 3.7 3.7 0 0 0 2.4 1 .8.8 0 0 0 .7-.4.8.8 0 0 1 .8-.4 3.5 3.5 0 0 1 1.4.3l1.5.7a5.9 5.9 0 0 0 1.4.6l1.5.3a23.6 23.6 0 0 0 3.8-.2l3.9-.4 3.9-.4a23.6 23.6 0 0 1 3.8-.2q3.6 0 6.9.3a43.8 43.8 0 0 1 6.8 1.5 46.2 46.2 0 0 1 4.7 1.9l4.9 2a40.5 40.5 0 0 0 4.9 1.7 21 21 0 0 0 5.1.6h2.4l12.1-2.5c4.1-.8 8.1-1.6 12.1-2.2s8.1-1.1 12.1-1.4 8.2-.6 12.4-.6h8.3a46.1 46.1 0 0 1 4.8.9l34.2 6.8h11c-.7 0-1.7 1-2.9 1.3a12 12 0 0 1-3.8.2z"/></symbol></svg>